<svg width="921" height="1075" viewBox="0 0 921 1075" version="1.1" xmlns="http://www.w3.org/2000/svg" xml:space="preserve" style="fill-rule:evenodd;clip-rule:evenodd;stroke-linejoin:round;stroke-miterlimit:2;">
    <path d="M656.134,17.979c0.081,-12.197 -5.692,-17.841 -17.697,-17.835c-59.388,0.014 -118.778,0.006 -178.154,0.006c0,0.512 0,-0.518 0,0c-60.948,0 -122.212,0.047 -183.16,-0.001c-4.304,-0 -7.335,1.814 -9.67,5.258c-2.901,4.26 -3.406,9.061 -3.315,14.025c0.323,16.348 1.055,34.216 1.281,50.575c0.672,48.681 1.274,97.363 1.888,146.054c0.289,22.288 1.592,44.462 5.412,66.5c5.562,32.178 15.526,62.906 29.74,92.225c15.332,31.605 35.011,60.261 59.459,85.572c19.434,20.125 40.842,37.811 65.604,50.972c19.539,10.373 39.872,10.647 59.607,0.477c18.598,-9.557 35.743,-21.484 51.643,-35.122c42.173,-36.185 73.035,-80.389 93.225,-132.071c9.618,-24.634 16.535,-50.135 19.313,-76.389c2.4,-22.747 3.502,-45.707 3.866,-68.593c0.647,-40.7 0.251,-81.421 0.405,-122.136c0.06,-19.838 0.446,-39.67 0.553,-59.517" style="fill:#febe13;"></path>
    <path d="M553.104,325.61c2.709,6.539 2.477,12.026 -2.648,15.955c-6.981,5.33 -14.346,10.444 -22.238,14.22c-9.376,4.511 -25.827,0.728 -30.898,-6.138c4.999,0.875 9.693,1.698 12.641,2.216c-7.984,-3.295 -17.407,-7.187 -26.832,-11.064c0.283,-1.019 0.568,-2.036 0.854,-3.064c2.563,0.396 5.332,0.314 7.664,1.26c14.877,6.106 14.837,6.177 20.237,5.439c-6.536,-2.215 -14.929,-5.035 -23.754,-8.01c2.761,-4.85 6.024,-4.288 9.375,-3.308c13.536,3.947 14.678,3.847 27.822,-2.761c-6.697,-2.278 -14.192,4.117 -20.984,-2.252c1.801,-1.207 2.834,-2.443 4.011,-2.614c9.985,-1.46 19.392,-7.267 30.026,-4.043c1.094,0.339 2.428,0.237 3.594,0.028c4.555,-0.816 8.843,-1.332 11.13,4.136m2.673,-8.317c1.245,1.091 3.288,1.985 3.577,3.276c0.736,3.238 0.653,6.656 0.902,9.999c0.628,0.286 1.248,0.57 1.86,0.86c3.196,-5.779 6.385,-11.564 9.572,-17.334c0.54,0.068 1.089,0.143 1.632,0.223c0.155,1.874 0.782,3.872 0.374,5.63c-3.092,13.296 -6.418,26.56 -9.628,39.826c-0.328,1.346 -0.443,2.728 -0.689,4.274c4.566,-2.194 4.895,-2.663 11.353,-20.651c2.691,-7.471 5.054,-15.063 7.579,-22.603c0.609,0.105 1.227,0.213 1.846,0.339c-2.339,14.613 -5.483,29.102 -12.083,42.493c-3.244,6.594 -7.209,13.144 -12.166,18.493c-7.7,8.32 -15.408,5.906 -18.321,-5.159c-1.268,-4.831 -1.953,-9.879 -2.333,-14.875c-0.164,-2.234 1.08,-4.568 1.677,-6.847c0.719,0.049 1.444,0.109 2.164,0.165c0.313,2.162 0.661,4.313 0.97,6.472c0.846,5.725 1.435,11.497 2.662,17.136c0.341,1.548 2.571,3.698 3.949,3.72c1.476,0.016 3.715,-1.871 4.339,-3.422c1.461,-3.697 2.833,-7.656 3.023,-11.575c0.733,-15.478 1.094,-30.979 -3.526,-46.092c-0.38,-1.204 0.804,-2.888 1.267,-4.348m-47.124,5.256c-8.315,3.328 -15.395,6.175 -22.507,9.025c5.117,-7.061 13.351,-7.435 22.507,-9.025m27.661,-139.243c-5.704,-4.007 -11.791,-5.965 -18.741,-4.984c-3.892,0.544 -6.228,-1.048 -6.564,-5.118c-0.398,-4.878 -3.125,-7.393 -7.846,-8.443c-2.507,-0.551 -4.93,-1.736 -7.196,-2.996c-3.111,-1.739 -4.152,-4.283 -1.915,-7.526c3.37,-4.881 3.393,-10.125 1.433,-16.215c7.047,-2.386 9.805,-8.324 12.363,-14.86c0.947,-2.42 3.185,-4.346 5.291,-6.322l2.695,-1.932c0.057,0.002 0.101,0.009 0.159,0.011c0.497,6.84 0.497,6.84 9.618,8.903c-1.147,1.604 -2.403,2.795 -3.002,4.266c-1.408,3.454 -3.281,6.981 -3.543,10.583c-0.314,4.453 2.709,6.018 6.724,4.011c2.929,-1.484 6.274,-2.948 7.558,0.877c0.64,1.945 -1.218,5.716 -3.089,7.253c-2.414,1.97 -5.994,2.508 -9.357,3.772c2.21,-0.126 4.452,0.022 6.596,-0.404c4.522,-0.929 6.363,0.928 5.222,5.145c-1.17,4.315 -0.254,7.627 2.409,11.166c2.952,3.931 5.097,8.459 6.986,14.337c-1.959,-0.482 -4.275,-0.444 -5.801,-1.524m-33.107,-0.491c-3.224,2.954 -5.887,-0.029 -8.447,-1.871c-6.715,-4.869 -11.41,-11.122 -13.797,-19.188c-1.477,-4.985 -3.536,-9.791 -5.252,-14.706c-0.457,-1.31 -1.047,-2.773 -0.869,-4.063c0.786,-6.095 1.811,-12.155 2.773,-18.231c0.532,-0.11 1.074,-0.226 1.61,-0.345c0.846,2.305 1.705,4.584 2.689,7.206c0.617,-4.442 1.206,-8.754 1.804,-13.069c-0.03,-0.063 -0.065,-0.122 -0.093,-0.187c0,-0.026 0.003,-0.051 0.008,-0.076c-9.298,4.733 -7.536,15.168 -11.499,22.663c-3.572,6.721 -7.695,8.964 -15.096,7.65c-15.212,-2.703 -24.994,-12.075 -31.308,-25.589c-1.193,-2.513 -2.06,-4.17 -5.445,-4.932c-7.333,-1.656 -12.954,-20.403 -8.443,-26.485c3.247,-4.383 6.639,-4.231 12.31,0.856c2.858,-2.664 5.735,-5.346 9.258,-8.609c-1.818,-1.581 -3.251,-2.821 -3.483,-3.02c-3.017,1.868 -5.211,3.935 -7.729,4.456c-1.463,0.303 -3.437,-1.879 -5.42,-3.091c-0.817,0.352 -2.462,1.082 -4.121,1.804c-0.481,-2.121 -0.978,-4.246 -1.466,-6.371c-0.749,2.838 -1.501,5.68 -2.515,9.557c-0.862,-1.629 -2.93,-3.762 -2.495,-5.02c1.541,-4.515 3.953,-8.739 6.025,-13.082c0.71,0.52 1.436,1.039 2.161,1.551c5.481,-11.413 13.464,-20.1 26.376,-22.714c16.24,-3.288 30.724,-0.227 42.29,12.612c1.691,1.879 4.034,3.205 6.15,4.684c6.587,4.671 7.54,12.134 1.51,18.458c0.559,-2.615 1.295,-4.403 1.213,-6.161c-0.091,-1.717 -1.008,-3.382 -1.706,-5.514c-5.873,7.001 1.169,15.034 -2.816,21.974c-3.417,20.904 -3.444,21.069 -3.751,24.323c0.045,-0.022 0.085,-0.046 0.13,-0.071c-0.016,0.111 -0.028,0.223 -0.045,0.334c1.058,2.217 2.784,4.389 2.906,6.654c0.321,5.536 -1.031,11.252 -0.1,16.614c1.193,6.81 3.276,13.702 6.42,19.82c1.406,2.774 6.62,3.359 9.546,5.665c2.557,2.033 5.831,4.966 6.035,7.697c0.19,2.496 -2.964,5.676 -5.318,7.817m-18.02,19.856l-10.184,8.283c-2.222,1.904 -5.725,4.054 -8.202,5.5c-10.507,6.076 -22.164,6.923 -33.878,6.211c-9.573,-0.575 -19.023,-2.587 -28.598,-3.259c-18.88,-1.323 -58.931,-19.798 -67.889,-22.74c-4.178,-1.37 0.346,-8.283 7.735,-24.768c4.376,-8.631 5.806,-9.628 13.1,-3.597c18.854,15.595 60.961,34.232 97.047,33.29c9.003,-0.235 17.989,-3.853 26.97,-6.542c2.448,-0.728 4.858,-1.566 7.291,-2.352c0.466,0.844 1.845,3.453 2.302,4.278c-5.694,5.696 0.55,0.614 -5.694,5.696m-35.33,37.045c-3.514,3.228 -7.389,6.108 -11.345,8.774c-3.732,2.521 -7.05,3.796 -10.717,-1.321c-2.306,-3.232 -7.757,-4.114 -7.672,-8.959c5.501,-1.928 10.221,-3.581 15.889,-5.555c-3.287,-2.445 -5.374,-4.021 -7.471,-5.583c0.183,-0.644 0.375,-1.285 0.551,-1.927c5.652,-0 11.464,-0.839 16.904,0.211c7.131,1.377 9.119,9.569 3.861,14.36m10.797,-5.689c2.89,-2.008 5.371,-4.624 8.837,-7.642c3.353,11.942 -9.337,14.708 -11.74,23.862c10.433,-3.343 18.984,-7.743 26.715,-13.973c2.578,-2.075 6.012,-3.06 9.065,-4.558c-1.49,3.152 -2.633,6.538 -4.585,9.377c-1.771,2.566 -4.406,4.542 -6.291,7.311c1.328,-0.869 2.662,-1.728 4.004,-2.599c0.408,0.22 0.815,0.438 1.227,0.653c-2.09,6.36 -4.831,12.582 -6.108,19.095c-2.295,11.665 -11.785,15.299 -20.584,19.601c-9.549,4.667 -19.342,8.859 -29.167,12.923c-5.304,2.189 -8.942,0.102 -9.025,-5.664c-0.127,-8.822 -0.186,-17.822 9.229,-23.264c2.348,-1.359 4.019,-4.492 5.222,-7.157c5.193,-11.474 12.836,-20.778 23.201,-27.965m-37.392,96.676c-0.629,2.144 -3.616,4.957 -5.553,4.976c-2.168,0.042 -5.655,-2.333 -6.341,-4.395c-3.064,-9.094 -6.255,-18.318 -7.617,-27.769c-1.268,-8.722 -0.275,-17.769 -0.275,-26.709c-5.551,8.811 -6.719,19.048 -5.085,29.07c1.604,9.747 5.415,19.122 8.406,29.155c-4.748,0.223 -8.1,-2.494 -10.288,-6.789c-6.729,-13.376 -5.897,-27.21 -2.083,-41.143c0.884,-3.208 1.921,-6.365 2.292,-9.786c-9,7.093 -13.18,16.797 -14.439,27.704c-1.366,11.708 5.644,20.483 11.966,29.369c-0.456,0.488 -0.922,1.001 -1.382,1.502l-9.972,-1.502l-15.262,-3.243c-10.036,-2.472 -18.193,-5.914 -23.406,-13.754c-4.654,-6.954 -13.957,-39.494 -5.344,-54.772c2.965,-5.263 8.852,-5.05 14.129,-4.821c2.161,0.101 4.319,0.873 6.457,1.415c11.628,2.961 23.111,6.741 34.904,8.662c10.011,1.65 20.369,1.163 29.783,1.579c-1.839,9.98 -4.41,19.587 -5.22,29.342c-0.796,9.654 0.154,19.452 0.345,29.197c0.917,0.104 1.816,0.21 2.726,0.316c1.209,-5.948 2.432,-11.881 3.643,-17.82c0.608,0.11 1.212,0.212 1.824,0.341c-1.334,6.645 -2.31,13.406 -4.208,19.875m-65.603,-171.915c1.192,-1.322 2.85,-2.331 6.388,-3.54c7.121,-1.073 21.902,3.667 28.174,6.498c6.313,2.838 12.462,6.045 18.69,9.077c0.488,-0.719 0.962,-1.453 1.452,-2.175c-4.665,-3.289 -9.096,-6.994 -14.068,-9.733c-5.034,-2.766 -10.577,-4.573 -16.845,-7.184c4.654,-2.469 12.654,-2.621 6.525,-11.49c0.711,-0.19 1.428,-0.389 2.136,-0.585c4.91,3.758 9.534,7.937 14.775,11.158c5.67,3.486 11.892,6.06 19.23,9.695c-7.782,-7.617 -14.526,-13.846 -20.778,-20.556c-2.522,-2.713 -4.206,-6.341 -5.779,-9.785c-1.618,-3.549 -0.396,-6.164 3.622,-7.327c4.15,-1.193 9.471,0.11 13.056,4.927c-3.927,-0.347 -7.83,-0.708 -13.974,-1.246c3.503,5.374 5.514,9.993 8.853,13.245c9.623,9.399 19.381,18.751 29.867,27.16c11.621,9.363 19.744,6.911 26.069,-6.672c1.397,-2.965 2.538,-6.03 4.466,-8.761c0.431,6.802 10.834,21.324 11.729,32.681c-4.01,7.366 -10.623,10.845 -17.87,11.753c-27.94,3.466 -59.857,-2.14 -82.677,-16.172c-2.128,-1.31 -24.31,-13.686 -25.628,-16.049c-1.68,-3.03 0.259,-2.331 2.587,-4.919m60.403,-25.523c1.772,-3.483 2.579,-7.45 4.158,-12.22c4.324,11.91 11.307,20.488 21.266,26.434c3.213,1.921 6.869,3.848 10.482,4.225c5.829,0.606 7.119,3.55 6.379,8.515c-0.875,5.974 -4.985,9.937 -10.044,8.879c-3.235,-0.686 -6.807,-1.992 -9.152,-4.158c-7.517,-6.947 -14.615,-14.33 -21.662,-21.751c-2.629,-2.758 -3.437,-6.004 -1.427,-9.924m121.504,184.94c-8.318,0.472 -16.665,0.533 -24.951,1.285c-13.922,1.273 -26.561,5.478 -36.364,16.336c-3.943,4.343 -8.84,7.814 -13.296,11.68c-0.306,-0.303 -0.614,-0.611 -0.921,-0.911c0.921,-1.328 1.831,-2.648 2.996,-4.346c-1.747,1.408 -3.128,2.513 -4.855,3.891c-1.819,-7.793 -1.219,-14.057 5.335,-19.304c6.112,-4.902 11.326,-10.888 17.264,-16.019c2.15,-1.846 5.098,-3.299 7.884,-3.752c10.646,-1.822 21.37,-3.167 31.71,-4.639c-10.662,-2.745 -21.451,-1.642 -31.971,3.095c10.86,-8.245 22.955,-8.416 34.927,-4.329c7.871,2.689 14.308,4.56 18.362,-5.043c0.495,-1.183 1.871,-2.136 3.067,-2.847c9.25,-5.58 18.548,-11.091 27.829,-16.609c1.657,-0.977 3.307,-1.901 4.966,-2.86c-0.052,-0.495 -0.108,-0.995 -0.165,-1.494c-5.913,1.389 -9.774,-1.82 -10.489,-6.356c-0.966,-6.083 -4.551,-8.661 -9.398,-10.44c-3.123,-1.157 -3.432,-3.201 -3.369,-6.09c0.191,-9.628 0.525,-19.283 0.017,-28.888c-0.692,-12.997 -4.05,-25.472 -10.62,-36.76c-3.197,-5.473 -7.171,-9.195 2.075,-13.421c6.333,-2.893 9.345,-10.115 12.845,-16.683c6.26,-11.76 1.187,-37.29 -14.069,-41.728c-4.787,-1.401 -9.545,-3.198 -13.995,-5.449c-7.764,-3.902 -14.509,-2.468 -20.887,1.99c-0.365,0.221 -0.685,0.461 -0.975,0.711c-0.265,0.198 -0.528,0.389 -0.79,0.598c0.051,0.005 0.082,0.028 0.121,0.042c-1.992,2.217 -1.822,4.967 -1.822,4.967c-1.843,3.712 -4.356,7.238 -5.343,11.156c-1.111,4.411 -3.379,6.963 -7.286,8.846c-1.581,0.768 -3.491,2.466 -3.786,4.017c-0.596,3.09 -0.166,6.383 -0.166,10.146c-4.844,-3.279 -5.076,-4.565 -4.844,-9.423c0.305,-6.584 1.859,-13.931 -0.41,-19.665c-4.611,-11.685 4.916,-20.844 3.68,-31.578c-0.057,-0.606 1.357,-1.345 2.031,-2.071c7.005,-7.807 5.127,-18.855 -3.918,-24.188c-2.147,-1.273 -4.189,-3.008 -5.724,-4.962c-14.564,-18.656 -55.077,-20.254 -68.393,4.368c-1.268,2.33 -3.409,4.339 -5.558,5.974c-5.326,4.092 -11.463,19.452 -9.822,25.983c0.896,3.623 1.624,7.575 3.627,10.584c3.742,5.631 8.352,10.679 13.709,17.325c-3.504,-0.719 -5.073,-0.895 -6.541,-1.367c-8.565,-2.794 -14.573,-0.244 -20.313,6.979c-6.591,8.277 -14.85,15.211 -22.433,22.678c-0.66,0.648 -1.695,0.971 -2.588,1.372c-3.888,1.767 -7.785,3.498 -11.445,5.134c-0.272,-0 -0.545,-0.008 -0.823,-0.016l-1.593,1.741c0,-0 -22.143,16.377 -31.701,80.725c0.17,0.855 0.322,1.704 0.518,2.571l-0.001,-0c3.941,3.588 8.56,5.727 8.56,5.727c1.892,3.371 2.483,7.262 2.187,11.676c-0.3,4.425 -0.3,8.871 -0.838,13.26c-1.853,15.344 -0.237,30.258 6.741,44.08c2.824,5.57 6.622,11.542 11.623,14.881c6.257,4.181 8.571,9.173 8.693,15.923c0.126,6.42 0.222,12.841 0.281,19.265c-0.045,0.638 -0.583,8.25 0.079,15.046c0.063,3.511 0.714,6.285 1.932,8.281c0.493,0.961 1.085,1.694 1.799,2.104l0.055,0.015c1.492,1.181 3.412,1.75 5.748,1.677l0.078,0.022l25.777,-0.206c0.028,0.006 0.06,0.014 0.09,0.02c0.001,-0.009 0.006,-0.014 0.011,-0.023l50.934,-0.41c-6.055,-8.614 -12.403,-15.966 -16.763,-24.333c-4.367,-8.341 -5.982,-17.764 -2.325,-27.092c2.91,5.433 4.536,11.261 7.467,16.329c4.443,7.72 9.169,9.689 14.959,7.403c-0.988,-1.101 -1.688,-2.436 -2.8,-3.027c-8.213,-4.418 -12.26,-11.701 -13.131,-20.501c-0.894,-9.142 -0.791,-18.402 -1.084,-27.614c-0.206,-6.636 3.156,-10.921 8.953,-13.737c5.955,-2.905 12.04,-5.649 17.695,-9.083c1.555,-0.942 3.367,-1.835 5.224,-2.678l-0.005,0.005c18.898,-4.874 24.145,-19.924 24.145,-19.924c1.458,-6.213 8.155,-10.915 8.161,-10.92c0.602,0.027 1.182,0.105 1.711,0.317c7.658,3.004 15.002,6.919 22.834,9.374c11.11,3.486 18.875,-2.515 20.209,-15.84c-7.537,11.608 -17.102,14.298 -28.769,9.361c-3.513,-1.487 -6.953,-3.151 -10.403,-4.797c-7.657,-3.673 -7.941,-7.644 -1.138,-12.651c5.324,-3.935 10.613,-7.945 15.656,-12.235c7.181,-6.121 9.118,-14.173 7.417,-23.479c-1.262,17.656 -14.613,24.512 -28.085,32.79c2.165,-7.642 1.579,-11.491 -0.252,-11.871c-0.432,0.027 -14.96,7.076 -19.918,11.13c-0.542,-0.213 -1.112,-0.439 -1.655,-0.648c0.068,-1.155 0.339,-2.342 0.153,-3.456c-0.542,-3.355 -0.165,-7.906 -2.184,-9.736c-3.61,-3.237 -5.539,1.893 -8.169,3.61c-1.893,1.247 -4.64,3.297 -6.001,2.707c-1.86,-0.818 -2.762,-3.808 -4.283,-6.175c1.798,-0.899 2.637,-1.525 3.566,-1.748c16.893,-3.971 29.222,-15.329 40.523,-27.149c6.935,-7.242 13.692,-12.593 23.776,-13.398c-0.182,-0.505 -0.362,-1.014 -0.538,-1.533c-5.894,1.663 -11.8,3.332 -17.697,4.992c1.492,-1.985 3.213,-3.716 5.291,-4.641c9.369,-4.115 18.257,-2.996 27.008,2.35c3.34,2.045 7.458,2.842 13.08,4.881c14.657,24.402 9.688,78.821 -1.343,100.5c-4.142,8.156 -11.705,11.05 -21.643,8.364c-8.215,-2.206 -16.138,-1.566 -24.412,-0.021c-6.732,1.261 -13.817,0.612 -20.745,0.811c-0.885,0.031 -1.772,0.086 -2.657,0.122c-0.099,0.468 -0.21,0.928 -0.322,1.416c3.911,1.292 7.845,2.57 12.252,4.04c-7.203,5.309 -13.57,0.503 -20.486,-1.229c1.276,7.619 7.153,6.552 12.66,7.867c-9.882,6.511 -16.73,9.824 -19.902,12.489c-5.719,4.803 -3.922,17.336 -0.071,30.406c14.229,0.642 25.263,-4.032 41.483,5.112l7.25,3.626c1.07,0.535 -0,-0 7.042,1.113c-5.829,9.477 -15.319,12.103 -25.016,12.589c-9.74,0.495 -19.6,-0.949 -29.398,-1.549c22.48,9.967 43.562,9.429 62.907,-8.579c-1.273,4.019 -2.971,7.301 -5.54,9.634c-7.537,6.879 -17.226,8.202 -26.834,9.632c-2.307,0.347 -4.501,1.378 -6.755,2.082c0.012,0.769 0.028,1.536 0.044,2.29c2.858,0.871 5.686,2.31 8.598,2.525c17.783,1.347 31.71,-10.047 35.884,-28.954c0.463,-2.062 1.439,-4.015 2.169,-6.01c0.599,0.09 1.215,0.185 1.802,0.281c0.45,2.048 0.946,4.111 1.356,6.175c1.109,5.704 1.85,11.524 3.363,17.114c3.006,11.14 13.295,14.769 22.34,7.49c4.591,-3.696 8.62,-8.521 11.739,-13.556c8.923,-14.449 12.852,-30.699 15.371,-47.285c1.284,-8.404 1.937,-16.897 3.046,-26.975c-17.314,6.012 -35.098,4.133 -48.6,16.135c-0.805,0.715 -2.183,1.008 -3.298,1.068" style="fill:#2d2e71;"></path>
    <path d="M208.766,1071.52c0.75,0 1.363,-0.313 1.839,-0.938c0.475,-0.626 0.713,-1.376 0.713,-2.252c-0,-0.876 -0.075,-1.689 -0.225,-2.439l1.426,-0.226c0.2,0.751 0.3,1.577 0.3,2.477c-0,1.802 -0.538,3.228 -1.614,4.279c-1.076,1.051 -2.464,1.576 -4.166,1.576c-4.253,0 -6.38,-2.577 -6.38,-7.731c0,-5.154 -0.65,-8.945 -1.951,-11.372c-1.301,-2.427 -3.953,-3.64 -7.957,-3.64l-4.879,-0l0,19.44c0,0.701 0.351,1.051 1.051,1.051l5.029,0l0,1.351l-16.813,0l-0,-1.351l3.528,0c0.7,0 1.051,-0.35 1.051,-1.051l-0,-42.634c-0,-0.6 -0.351,-0.9 -1.051,-0.9l-3.528,-0l-0,-1.351l18.69,-0c4.203,-0 7.781,1.15 10.733,3.452c2.953,2.302 4.429,5.38 4.429,9.233c-0,3.102 -0.963,5.717 -2.89,7.843c-1.926,2.127 -4.466,3.591 -7.618,4.391c3.552,1.201 5.804,3.353 6.755,6.456c0.75,2.552 1.126,5.579 1.126,9.082c-0,3.503 0.8,5.254 2.402,5.254Zm497.421,1.576l-0.075,-1.051c-0.05,-1.05 -0.45,-1.576 -1.201,-1.576c-0.4,0 -1.125,0.275 -2.176,0.826c-3.253,1.801 -6.531,2.702 -9.833,2.702c-6.305,0 -11.472,-2.177 -15.5,-6.53c-4.028,-4.354 -6.042,-10.346 -6.042,-17.977c-0,-7.631 1.989,-13.636 5.967,-18.014c3.978,-4.379 9.17,-6.568 15.575,-6.568c3.252,-0 6.505,0.826 9.758,2.477c1.05,0.55 1.801,0.825 2.251,0.825c0.751,0 1.151,-0.525 1.201,-1.576l0.075,-1.276l1.427,0l-0,12.986l-1.351,-0c-0.451,-3.854 -1.889,-6.693 -4.316,-8.52c-2.427,-1.826 -5.442,-2.739 -9.045,-2.739c-4.554,-0 -8.219,2.001 -10.996,6.004c-2.778,4.004 -4.166,9.483 -4.166,16.438c-0,6.956 1.401,12.41 4.203,16.364c2.802,3.953 6.455,5.929 10.959,5.929c3.603,0 6.618,-0.913 9.045,-2.739c2.427,-1.827 3.865,-4.667 4.316,-8.52l1.351,0l-0,12.535l-1.427,0Zm132.781,-5.629c-3.953,-4.354 -5.929,-10.358 -5.929,-18.015c-0,-7.656 1.989,-13.66 5.967,-18.014c3.978,-4.353 9.157,-6.53 15.537,-6.53c6.38,-0 11.559,2.177 15.538,6.53c3.978,4.354 5.967,10.358 5.967,18.014c-0,7.657 -1.989,13.661 -5.967,18.015c-3.979,4.353 -9.158,6.53 -15.538,6.53c-6.38,0 -11.571,-2.177 -15.575,-6.53Zm-55.769,-0c-3.953,-4.354 -5.93,-10.358 -5.93,-18.015c0,-7.656 1.989,-13.66 5.967,-18.014c3.979,-4.353 9.158,-6.53 15.538,-6.53c6.38,-0 11.559,2.177 15.537,6.53c3.978,4.354 5.967,10.358 5.967,18.014c0,7.657 -1.989,13.661 -5.967,18.015c-3.978,4.353 -9.157,6.53 -15.537,6.53c-6.38,0 -11.572,-2.177 -15.575,-6.53Zm-140.662,6.53c-3.303,0 -6.606,-0.901 -9.908,-2.702c-1.101,-0.551 -1.852,-0.826 -2.252,-0.826c-0.751,0 -1.151,0.526 -1.201,1.576l-0.075,1.051l-1.426,0l-0,-12.535l1.351,0c0.45,3.853 1.889,6.693 4.316,8.52c2.427,1.826 5.304,2.739 8.632,2.739c3.327,0 5.854,-0.9 7.581,-2.702c1.726,-1.801 2.589,-3.928 2.589,-6.38c0,-3.903 -2.251,-6.855 -6.755,-8.857l-8.932,-3.978c-2.702,-1.201 -4.729,-2.84 -6.08,-4.917c-1.351,-2.076 -2.027,-4.316 -2.027,-6.717c0,-3.653 1.226,-6.793 3.678,-9.421c2.452,-2.627 5.98,-3.94 10.584,-3.94c2.702,-0 5.479,0.901 8.331,2.702c0.951,0.55 1.602,0.826 1.952,0.826c0.65,-0 1.001,-0.526 1.051,-1.577l0.075,-1.501l1.426,0l-0,12.986l-1.351,-0c-0.4,-3.854 -1.639,-6.693 -3.716,-8.52c-2.076,-1.826 -4.603,-2.739 -7.581,-2.739c-2.977,-0 -5.279,0.813 -6.905,2.439c-1.626,1.626 -2.44,3.478 -2.44,5.554c0,2.077 0.563,3.941 1.689,5.592c1.126,1.652 2.79,2.953 4.992,3.904l9.007,3.978c3.002,1.351 5.267,3.115 6.793,5.291c1.526,2.177 2.289,4.517 2.289,7.019c0,3.552 -1.426,6.63 -4.278,9.232c-2.852,2.602 -6.656,3.903 -11.409,3.903Zm-238.24,-6.53c-3.953,-4.354 -5.93,-10.358 -5.93,-18.015c-0,-7.656 1.989,-13.66 5.967,-18.014c3.978,-4.353 9.158,-6.53 15.538,-6.53c6.38,-0 11.559,2.177 15.537,6.53c3.978,4.354 5.967,10.358 5.967,18.014c0,7.657 -1.989,13.661 -5.967,18.015c-3.978,4.353 -9.157,6.53 -15.537,6.53c-6.38,0 -11.572,-2.177 -15.575,-6.53Zm-275.47,5.629l-0,-1.351l3.528,0c0.7,0 1.051,-0.35 1.051,-1.051l-0,-42.634c-0,-0.6 -0.351,-0.9 -1.051,-0.9l-3.528,-0l-0,-1.351l23.794,-0c3.953,-0 6.73,-0.226 8.332,-0.676c-0.451,2.052 -0.676,4.904 -0.676,8.557l0,3.528l-1.726,-0l-1.126,-7.656c-0.1,-1.101 -0.801,-1.652 -2.102,-1.652l-15.762,0l-0,20.492l15.087,-0c0.6,-0 0.95,-0.351 1.05,-1.051l0.376,-4.654l1.351,0l-0,13.511l-1.351,-0l-0.376,-4.654c-0.1,-0.7 -0.45,-1.051 -1.05,-1.051l-15.087,0l-0,20.492l16.813,-0c1.301,-0 2.002,-0.551 2.102,-1.652l1.125,-8.782l1.727,0l-0,3.528c-0,4.404 0.225,7.631 0.675,9.683c-1.601,-0.451 -4.378,-0.676 -8.331,-0.676l-24.845,0Zm759.981,0l0,-1.351l3.528,0c0.7,0 1.051,-0.35 1.051,-1.051l-0,-42.634c-0,-0.6 -0.351,-0.9 -1.051,-0.9l-3.528,-0l0,-1.351l15.312,-0l0,1.351l-3.527,-0c-0.701,-0 -1.051,0.3 -1.051,0.9l-0,42.935l14.937,-0c1.301,-0 2.001,-0.551 2.101,-1.652l1.126,-8.782l1.727,0l-0,3.528c-0,4.404 0.225,7.631 0.675,9.683c-1.601,-0.451 -4.378,-0.676 -8.332,-0.676l-22.968,0Zm-329.963,0l-0,-1.351l3.528,0c0.7,0 1.051,-0.35 1.051,-1.051l-0,-42.634c-0,-0.6 -0.351,-0.9 -1.051,-0.9l-3.528,-0l-0,-1.351l15.312,-0l0,1.351l-3.528,-0c-0.7,-0 -1.051,0.3 -1.051,0.9l0,42.935l14.937,-0c1.301,-0 2.002,-0.551 2.102,-1.652l1.126,-8.782l1.726,0l0,3.528c0,4.404 0.226,7.631 0.676,9.683c-1.601,-0.451 -4.379,-0.676 -8.332,-0.676l-22.968,0Zm-455.839,-45.186l0,42.934c0,0.601 0.351,0.901 1.051,0.901l6.53,0l0,1.351l-21.317,0l0,-1.351l6.531,0c0.7,0 1.05,-0.3 1.05,-0.901l0,-42.934l-9.682,0c-1.301,0 -2.002,0.551 -2.102,1.652l-1.126,8.782l-1.726,-0l-0,-3.528c-0,-4.404 -0.225,-7.631 -0.676,-9.683c1.602,0.45 4.379,0.676 8.332,0.676l20.116,-0c3.953,-0 6.73,-0.226 8.332,-0.676c-0.451,2.052 -0.676,5.279 -0.676,9.683l0,3.528l-1.726,-0l-1.126,-8.782c-0.1,-1.101 -0.801,-1.652 -2.102,-1.652l-9.683,0Zm214.747,45.186l-15.388,0l0,-1.351l4.879,0l-5.254,-14.486l-16.513,-0l-5.254,14.486l4.879,0l-0,1.351l-11.334,0l-0,-1.351l2.777,0c0.7,0 1.176,-0.35 1.426,-1.051l16.513,-44.885l2.552,-0l16.513,44.885c0.25,0.701 0.726,1.051 1.426,1.051l2.778,0l-0,1.351Zm-253.327,0l-28.223,-41.883l0,39.481c0,0.701 0.35,1.051 1.051,1.051l3.528,0l-0,1.351l-11.71,0l0,-1.351l3.528,0c0.701,0 1.051,-0.35 1.051,-1.051l0,-42.634c0,-0.6 -0.35,-0.9 -1.051,-0.9l-3.528,-0l0,-1.351l11.034,-0l24.169,35.728l0,-33.327c0,-0.7 -0.35,-1.05 -1.05,-1.05l-3.528,-0l-0,-1.351l11.709,-0l0,1.351l-3.528,-0c-0.7,-0 -1.05,0.3 -1.05,0.9l-0,45.036l-2.402,0Zm310.447,-2.402l0,-42.634c0,-0.6 -0.35,-0.9 -1.051,-0.9l-3.527,-0l-0,-1.351l15.312,-0l-0,1.351l-3.528,-0c-0.701,-0 -1.051,0.3 -1.051,0.9l0,42.634c0,0.701 0.35,1.051 1.051,1.051l3.528,0l-0,1.351l-15.312,0l-0,-1.351l3.527,0c0.701,0 1.051,-0.35 1.051,-1.051Zm-117.093,2.402l-28.223,-41.883l0,39.481c0,0.701 0.351,1.051 1.051,1.051l3.528,0l-0,1.351l-11.709,0l-0,-1.351l3.527,0c0.701,0 1.051,-0.35 1.051,-1.051l0,-42.634c0,-0.6 -0.35,-0.9 -1.051,-0.9l-3.527,-0l-0,-1.351l11.033,-0l24.17,35.728l-0,-33.327c-0,-0.7 -0.351,-1.05 -1.051,-1.05l-3.528,-0l0,-1.351l11.709,-0l0,1.351l-3.527,-0c-0.701,-0 -1.051,0.3 -1.051,0.9l-0,45.036l-2.402,0Zm-252.201,-2.402l-0,-42.634c-0,-0.6 -0.351,-0.9 -1.051,-0.9l-3.528,-0l0,-1.351l15.312,-0l0,1.351l-3.528,-0c-0.7,-0 -1.05,0.3 -1.05,0.9l-0,42.634c-0,0.701 0.35,1.051 1.05,1.051l3.528,0l0,1.351l-15.312,0l0,-1.351l3.528,0c0.7,0 1.051,-0.35 1.051,-1.051Zm543.883,2.402l-15.387,0l0,-1.351l4.879,0l-5.254,-14.486l-16.513,-0l-5.254,14.486l4.878,0l0,1.351l-11.334,0l0,-1.351l2.778,0c0.7,0 1.176,-0.35 1.426,-1.051l16.513,-44.885l2.552,-0l16.513,44.885c0.25,0.701 0.726,1.051 1.426,1.051l2.777,0l0,1.351Zm-59.972,0l-28.223,-41.883l0,39.481c0,0.701 0.35,1.051 1.051,1.051l3.528,0l-0,1.351l-11.71,0l0,-1.351l3.528,0c0.701,0 1.051,-0.35 1.051,-1.051l0,-42.634c0,-0.6 -0.35,-0.9 -1.051,-0.9l-3.528,-0l0,-1.351l11.034,-0l24.169,35.728l0,-33.327c0,-0.7 -0.35,-1.05 -1.05,-1.05l-3.528,-0l-0,-1.351l11.709,-0l0,1.351l-3.528,-0c-0.7,-0 -1.05,0.3 -1.05,0.9l-0,45.036l-2.402,0Zm-145.016,-45.186l-0,42.934c-0,0.601 0.35,0.901 1.051,0.901l6.53,0l-0,1.351l-21.317,0l-0,-1.351l6.53,0c0.701,0 1.051,-0.3 1.051,-0.901l0,-42.934l-9.683,0c-1.301,0 -2.001,0.551 -2.101,1.652l-1.126,8.782l-1.727,-0l0,-3.528c0,-4.404 -0.225,-7.631 -0.675,-9.683c1.601,0.45 4.378,0.676 8.331,0.676l20.117,-0c3.953,-0 6.73,-0.226 8.331,-0.676c-0.45,2.052 -0.675,5.279 -0.675,9.683l-0,3.528l-1.727,-0l-1.126,-8.782c-0.1,-1.101 -0.8,-1.652 -2.101,-1.652l-9.683,0Zm409.301,42.784l0,-20.191l-21.917,0l-0,20.191c-0,0.701 0.35,1.051 1.051,1.051l3.528,0l-0,1.351l-15.313,0l0,-1.351l3.528,0c0.701,0 1.051,-0.35 1.051,-1.051l0,-42.634c0,-0.6 -0.35,-0.9 -1.051,-0.9l-3.528,-0l0,-1.351l15.313,-0l-0,1.351l-3.528,-0c-0.701,-0 -1.051,0.35 -1.051,1.05l-0,20.192l21.917,-0l0,-20.192c0,-0.7 -0.35,-1.05 -1.05,-1.05l-3.528,-0l-0,-1.351l15.312,-0l-0,1.351l-3.528,-0c-0.7,-0 -1.051,0.3 -1.051,0.9l0,42.634c0,0.701 0.351,1.051 1.051,1.051l3.528,0l-0,1.351l-15.312,0l-0,-1.351l3.528,0c0.7,0 1.05,-0.35 1.05,-1.051Zm-344.75,-37.755c-2.852,4.053 -4.278,9.558 -4.278,16.513c0,6.956 1.439,12.46 4.316,16.514c2.877,4.053 6.468,6.079 10.771,6.079c4.303,0 7.906,-2.026 10.809,-6.079c2.902,-4.054 4.353,-9.558 4.353,-16.514c0,-6.955 -1.451,-12.46 -4.353,-16.513c-2.903,-4.053 -6.506,-6.08 -10.809,-6.08c-4.303,0 -7.906,2.027 -10.809,6.08Zm434.672,0c-2.852,4.053 -4.278,9.558 -4.278,16.513c-0,6.956 1.438,12.46 4.316,16.514c2.877,4.053 6.467,6.079 10.771,6.079c4.303,0 7.906,-2.026 10.808,-6.079c2.903,-4.054 4.354,-9.558 4.354,-16.514c-0,-6.955 -1.451,-12.46 -4.354,-16.513c-2.902,-4.053 -6.505,-6.08 -10.808,-6.08c-4.304,0 -7.907,2.027 -10.809,6.08Zm-55.769,0c-2.853,4.053 -4.279,9.558 -4.279,16.513c0,6.956 1.439,12.46 4.316,16.514c2.877,4.053 6.468,6.079 10.771,6.079c4.304,0 7.907,-2.026 10.809,-6.079c2.902,-4.054 4.353,-9.558 4.353,-16.514c0,-6.955 -1.451,-12.46 -4.353,-16.513c-2.902,-4.053 -6.505,-6.08 -10.809,-6.08c-4.303,0 -7.906,2.027 -10.808,6.08Zm-494.119,1.727l-7.506,20.491l14.936,-0l-7.43,-20.491Zm231.709,-0l-7.506,20.491l14.937,-0l-7.431,-20.491Zm-332.065,-6.756l-7.581,0l0,21.167l7.581,0c3.003,0 5.342,-1.051 7.019,-3.152c1.676,-2.102 2.514,-4.579 2.514,-7.431c0,-2.853 -0.838,-5.33 -2.514,-7.431c-1.677,-2.102 -4.016,-3.153 -7.019,-3.153Zm232.359,-88.85c-10.319,-11.364 -15.479,-27.038 -15.479,-47.022c0,-19.985 5.192,-35.659 15.576,-47.023c10.385,-11.364 23.904,-17.046 40.558,-17.046c16.653,0 30.172,5.682 40.557,17.046c10.384,11.364 15.576,27.038 15.576,47.023c-0,19.984 -5.192,35.658 -15.576,47.022c-10.385,11.364 -23.904,17.046 -40.557,17.046c-16.654,-0 -30.206,-5.682 -40.655,-17.046Zm338.171,0c-10.319,-11.364 -15.478,-27.038 -15.478,-47.022c-0,-19.985 5.192,-35.659 15.576,-47.023c10.384,-11.364 23.903,-17.046 40.557,-17.046c16.654,0 30.173,5.682 40.557,17.046c10.384,11.364 15.577,27.038 15.577,47.023c-0,19.984 -5.193,35.658 -15.577,47.022c-10.384,11.364 -23.903,17.046 -40.557,17.046c-16.654,-0 -30.205,-5.682 -40.655,-17.046Zm-506.082,14.695l-73.669,-109.328l0,103.058c0,1.829 0.915,2.743 2.743,2.743l9.209,0l-0,3.527l-30.565,-0l0,-3.527l9.209,0c1.828,0 2.743,-0.914 2.743,-2.743l-0,-111.287c-0,-1.567 -0.915,-2.351 -2.743,-2.351l-9.209,-0l0,-3.527l28.802,0l63.088,93.262l0,-86.992c0,-1.829 -0.914,-2.743 -2.743,-2.743l-9.208,-0l-0,-3.527l30.565,0l-0,3.527l-9.209,-0c-1.829,-0 -2.743,0.784 -2.743,2.351l-0,117.557l-6.27,-0Zm437.116,-6.27l-0,-111.287c-0,-1.567 -0.915,-2.351 -2.743,-2.351l-9.209,-0l-0,-3.527l39.969,0l0,3.527l-9.208,-0c-1.829,-0 -2.743,0.784 -2.743,2.351l-0,111.287c-0,1.829 0.914,2.743 2.743,2.743l9.208,0l0,3.527l-39.969,-0l-0,-3.527l9.209,0c1.828,0 2.743,-0.914 2.743,-2.743Zm-546.052,6.27l-40.165,-0l0,-3.527l12.735,0l-13.715,-37.814l-43.104,0l-13.715,37.814l12.736,0l-0,3.527l-29.585,-0l-0,-3.527l7.249,0c1.829,0 3.069,-0.914 3.723,-2.743l43.104,-117.165l6.661,0l43.104,117.165c0.653,1.829 1.894,2.743 3.723,2.743l7.249,0l0,3.527Zm491.388,-0l-73.669,-109.328l-0,103.058c-0,1.829 0.914,2.743 2.743,2.743l9.208,0l0,3.527l-30.564,-0l-0,-3.527l9.208,0c1.829,0 2.743,-0.914 2.743,-2.743l0,-111.287c0,-1.567 -0.914,-2.351 -2.743,-2.351l-9.208,-0l-0,-3.527l28.801,0l63.089,93.262l-0,-86.992c-0,-1.829 -0.915,-2.743 -2.743,-2.743l-9.209,-0l0,-3.527l30.565,0l-0,3.527l-9.209,-0c-1.828,-0 -2.743,0.784 -2.743,2.351l0,117.557l-6.269,-0Zm-289.582,-117.949l0,112.071c0,1.567 0.914,2.351 2.743,2.351l17.046,0l-0,3.527l-55.644,-0l0,-3.527l17.046,0c1.829,0 2.743,-0.784 2.743,-2.351l0,-112.071l-25.275,0c-3.396,0 -5.224,1.437 -5.486,4.311l-2.939,22.923l-4.506,0l0,-9.208c0,-11.495 -0.588,-19.92 -1.763,-25.275c4.18,1.175 11.429,1.763 21.748,1.763l52.508,0c10.319,0 17.569,-0.588 21.748,-1.763c-1.175,5.355 -1.763,13.78 -1.763,25.275l0,9.208l-4.506,0l-2.939,-22.923c-0.261,-2.874 -2.09,-4.311 -5.486,-4.311l-25.275,0Zm87.384,13.127c-7.445,10.58 -11.168,24.949 -11.168,43.105c0,18.156 3.755,32.524 11.266,43.104c7.511,10.58 16.882,15.87 28.116,15.87c11.233,-0 20.637,-5.29 28.213,-15.87c7.576,-10.58 11.364,-24.948 11.364,-43.104c0,-18.156 -3.788,-32.525 -11.364,-43.105c-7.576,-10.58 -16.98,-15.87 -28.213,-15.87c-11.234,0 -20.638,5.29 -28.214,15.87Zm338.172,0c-7.446,10.58 -11.168,24.949 -11.168,43.105c-0,18.156 3.755,32.524 11.266,43.104c7.51,10.58 16.882,15.87 28.115,15.87c11.233,-0 20.638,-5.29 28.214,-15.87c7.576,-10.58 11.364,-24.948 11.364,-43.104c-0,-18.156 -3.788,-32.525 -11.364,-43.105c-7.576,-10.58 -16.981,-15.87 -28.214,-15.87c-11.233,0 -20.638,5.29 -28.213,15.87Zm-689.863,4.507l-19.592,53.488l38.989,0l-19.397,-53.488Zm367.169,-32.524l13.911,-26.255c2.351,-4.441 5.16,-6.661 8.425,-6.661c1.829,-0 3.461,0.751 4.898,2.253c1.437,1.502 2.155,3.755 2.155,6.759l-26.254,26.255l-3.135,-2.351Zm201.218,-93.981c-10.319,-11.364 -15.478,-27.039 -15.478,-47.023c-0,-19.985 5.192,-35.659 15.576,-47.023c10.384,-11.364 23.903,-17.046 40.557,-17.046c16.654,0 30.173,5.682 40.557,17.046c10.385,11.364 15.577,27.038 15.577,47.023c-0,19.984 -5.192,35.659 -15.577,47.023c-10.384,11.363 -23.903,17.045 -40.557,17.045c-16.654,0 -30.205,-5.682 -40.655,-17.045Zm-444.364,17.045c-8.621,0 -17.242,-2.351 -25.863,-7.053c-2.873,-1.437 -4.833,-2.155 -5.878,-2.155c-1.959,-0 -3.004,1.371 -3.134,4.114l-0.196,2.743l-3.723,0l-0,-32.72l3.527,0c1.175,10.058 4.931,17.47 11.266,22.238c6.335,4.768 13.845,7.151 22.531,7.151c8.686,0 15.283,-2.351 19.789,-7.053c4.506,-4.702 6.759,-10.254 6.759,-16.654c0,-10.188 -5.877,-17.895 -17.633,-23.119l-23.315,-10.385c-7.054,-3.134 -12.344,-7.412 -15.871,-12.833c-3.526,-5.421 -5.29,-11.266 -5.29,-17.535c0,-9.536 3.2,-17.732 9.601,-24.589c6.4,-6.858 15.609,-10.287 27.626,-10.287c7.053,0 14.302,2.352 21.748,7.054c2.481,1.437 4.179,2.155 5.094,2.155c1.698,-0 2.612,-1.372 2.743,-4.115l0.196,-3.918l3.722,-0l0,33.895l-3.526,0c-1.045,-10.057 -4.278,-17.47 -9.699,-22.237c-5.42,-4.768 -12.017,-7.152 -19.789,-7.152c-7.771,0 -13.78,2.123 -18.025,6.368c-4.245,4.245 -6.368,9.078 -6.368,14.499c0,5.42 1.47,10.286 4.409,14.596c2.939,4.311 7.282,7.707 13.029,10.188l23.511,10.385c7.837,3.526 13.748,8.131 17.732,13.813c3.984,5.682 5.976,11.788 5.976,18.319c-0,9.274 -3.723,17.307 -11.168,24.099c-7.446,6.792 -17.373,10.188 -29.781,10.188Zm276.454,-2.351l-73.669,-109.328l0,103.058c0,1.829 0.914,2.743 2.743,2.743l9.209,0l-0,3.527l-30.565,0l-0,-3.527l9.209,0c1.828,0 2.743,-0.914 2.743,-2.743l-0,-111.287c-0,-1.567 -0.915,-2.351 -2.743,-2.351l-9.209,0l-0,-3.526l28.801,-0l63.089,93.261l0,-86.992c0,-1.828 -0.914,-2.743 -2.743,-2.743l-9.208,0l-0,-3.526l30.564,-0l0,3.526l-9.208,0c-1.829,0 -2.743,0.784 -2.743,2.351l-0,117.557l-6.27,0Zm-108.936,0l-40.165,0l-0,-3.527l12.735,0l-13.715,-37.814l-43.104,0l-13.715,37.814l12.735,0l0,3.527l-29.585,0l0,-3.527l7.25,0c1.828,0 3.069,-0.914 3.722,-2.743l43.104,-117.164l6.662,-0l43.104,117.164c0.653,1.829 1.894,2.743 3.723,2.743l7.249,0l0,3.527Zm201.806,-117.949l-0,112.071c-0,1.568 0.914,2.351 2.743,2.351l17.046,0l-0,3.527l-55.644,0l0,-3.527l17.046,0c1.828,0 2.743,-0.783 2.743,-2.351l-0,-112.071l-25.275,0c-3.396,0 -5.225,1.437 -5.486,4.311l-2.939,22.923l-4.506,0l-0,-9.208c-0,-11.495 -0.588,-19.919 -1.764,-25.275c4.18,1.176 11.43,1.764 21.748,1.764l52.509,-0c10.319,-0 17.568,-0.588 21.748,-1.764c-1.175,5.356 -1.763,13.78 -1.763,25.275l-0,9.208l-4.507,0l-2.938,-22.923c-0.262,-2.874 -2.09,-4.311 -5.486,-4.311l-25.275,0Zm87.384,13.128c-7.446,10.58 -11.168,24.948 -11.168,43.104c-0,18.156 3.755,32.524 11.266,43.104c7.51,10.58 16.882,15.87 28.115,15.87c11.234,0 20.638,-5.29 28.214,-15.87c7.576,-10.58 11.364,-24.948 11.364,-43.104c-0,-18.156 -3.788,-32.524 -11.364,-43.104c-7.576,-10.58 -16.98,-15.871 -28.214,-15.871c-11.233,0 -20.637,5.291 -28.213,15.871Zm-351.691,4.506l-19.593,53.488l38.99,0l-19.397,-53.488Z" style="fill:#f1f2f6;fill-rule:nonzero;"></path>
</svg>